#!OML:ASF F:\VICON\USERDATA\INSTALL\rory3\rory3.ASF
:FULLY-SPECIFIED
:DEGREES
1
root -4.67849 16.5697 17.5525 177.369 -60.2277 -163.988
lowerback -6.71696 5.81359 1.03834
upperback -6.60051 7.33086 -4.36892
thorax -2.39392 3.4216 -4.72759
lowerneck -11.2982 -8.18333 -16.0144
upperneck 31.9991 -15.1733 15.4783
head 15.7453 -7.33933 6.5089
rclavicle 1.50579e-014 1.11319e-014
rhumerus 0.98276 -0.488593 -26.4044
rradius 62.7815
rwrist 17.2118
rhand -30.7189 -52.9709
rfingers 7.12502
rthumb -4.01171 -82.9129
lclavicle 1.50579e-014 1.11319e-014
lhumerus -46.4815 19.434 20.0457
lradius 34.0888
lwrist 28.6109
lhand -41.6908 -35.0113
lfingers 7.12502
lthumb -14.5973 -5.54503
rfemur -27.4475 11.5897 14.0482
rtibia 37.6928
rfoot -20.7035 -18.9825
rtoes -16.7878
lfemur -39.0407 -7.29012 -1.13753
ltibia 47.6194
lfoot -26.705 -1.80795
ltoes -21.5
2
root -4.71887 16.5592 17.5587 177.315 -58.8044 -164.054
lowerback -6.70437 6.03759 1.91053
upperback -6.65182 7.60418 -4.13626
thorax -2.35146 3.53557 -4.95023
lowerneck -10.9026 -8.27771 -15.7514
upperneck 31.7531 -15.4685 15.5128
head 15.5746 -7.46185 6.40868
rclavicle 3.60794e-014 3.33958e-014
rhumerus 1.01545 -0.30281 -26.4926
rradius 62.3556
rwrist 16.898
rhand -30.32 -52.7931
rfingers 7.12502
rthumb -3.62646 -82.742
lclavicle 3.60794e-014 3.33958e-014
lhumerus -46.8846 19.6081 18.718
lradius 34.1328
lwrist 29.2341
lhand -42.0307 -34.5644
lfingers 7.12502
lthumb -14.9247 -5.12207
rfemur -27.3803 11.7804 14.1384
rtibia 37.5466
rfoot -20.9555 -18.9402
rtoes -17.0923
lfemur -38.2058 -6.94375 -1.16074
ltibia 47.7831
lfoot -27.1753 0.247617
ltoes -22.4736
3
root -4.75874 16.556 17.5712 177.896 -57.5386 -164.873
lowerback -6.65155 6.10968 2.40085
upperback -6.65383 7.687 -3.95413
thorax -2.33703 3.56444 -5.02982
lowerneck -10.5625 -8.35303 -15.7129
upperneck 31.5734 -15.6677 15.5203
head 15.4484 -7.57095 6.36048
rclavicle 3.69739e-014 7.15625e-014
rhumerus 1.34857 0.0729895 -26.5831
rradius 61.8907
rwrist 16.6419
rhand -31.2915 -52.6386
rfingers 7.12502
rthumb -4.56466 -82.5695
lclavicle 3.69739e-014 7.15625e-014
lhumerus -47.5904 19.8968 17.2244
lradius 34.2475
lwrist 29.9575
lhand -42.1943 -34.2557
lfingers 7.12502
lthumb -15.0823 -4.82514
rfemur -27.2933 11.8011 13.8177
rtibia 37.4598
rfoot -20.8225 -19.4173
rtoes -18.4811
lfemur -37.3163 -6.86736 -1.6364
ltibia 47.6933
lfoot -27.3101 1.60907
ltoes -22.6655
4
root -4.79485 16.5582 17.5804 178.293 -56.3552 -165.623
lowerback -6.46323 6.1507 2.8009
upperback -6.58685 7.74234 -3.74302
thorax -2.34282 3.58647 -5.0421
lowerneck -10.3703 -8.4636 -15.6652
upperneck 31.6071 -15.871 15.3277
head 15.4354 -7.69371 6.22704
rclavicle -6.44062e-014 -7.63333e-014
rhumerus 1.67672 0.241659 -26.7444
rradius 61.5001
rwrist 16.6289
rhand -32.1988 -52.9069
rfingers 7.12502
rthumb -5.44071 -82.8171
lclavicle -6.44062e-014 -7.63333e-014
lhumerus -48.2502 20.1455 15.8604
lradius 34.4429
lwrist 30.6416
lhand -42.481 -34.014
lfingers 7.12502
lthumb -15.3585 -4.60442
rfemur -27.0678 12.1612 13.5114
rtibia 37.3507
rfoot -20.7202 -19.9605
rtoes -19.9301
lfemur -36.3603 -6.92185 -2.09724
ltibia 47.5597
lfoot -27.3532 3.11175
ltoes -23.2692
5
root -4.82969 16.5648 17.5993 178.55 -55.2735 -166.199
lowerback -6.25398 6.14863 3.22717
upperback -6.46229 7.74857 -3.41711
thorax -2.31739 3.58898 -4.95212
lowerneck -10.2652 -8.57239 -15.8772
upperneck 31.6656 -16.0258 15.217
head 15.4831 -7.8111 6.18588
rclavicle 1.70955e-014 -4.45278e-014
rhumerus 2.11377 0.431425 -26.7232
rradius 61.2178
rwrist 16.5167
rhand -32.0369 -53.2615
rfingers 7.12502
rthumb -5.28435 -83.1756
lclavicle 1.70955e-014 -4.45278e-014
lhumerus -48.6935 19.6294 14.9819
lradius 34.5917
lwrist 32.011
lhand -42.8247 -33.7561
lfingers 7.12502
lthumb -15.6895 -4.37218
rfemur -26.8872 12.7398 13.1883
rtibia 37.2577
rfoot -21.1672 -19.9855
rtoes -20.632
lfemur -35.4578 -7.28751 -2.43866
ltibia 47.3315
lfoot -27.3363 4.87676
ltoes -23.8697
6
root -4.86446 16.5737 17.6262 179.319 -54.3424 -167.358
lowerback -6.04543 6.07884 3.30558
upperback -6.32923 7.67168 -3.20817
thorax -2.31938 3.55736 -4.79836
lowerneck -10.1255 -8.69317 -15.9588
upperneck 31.6085 -16.2408 15.1727
head 15.4747 -7.9333 6.13359
rclavicle 4.6615e-014 0
rhumerus 2.55794 0.598606 -26.6101
rradius 60.8013
rwrist 16.4128
rhand -31.7292 -52.7155
rfingers 7.12502
rthumb -4.98728 -82.6368
lclavicle 4.6615e-014 0
lhumerus -49.5227 20.2768 13.7271
lradius 34.7378
lwrist 31.8229
lhand -42.9257 -33.6408
lfingers 7.12502
lthumb -15.7868 -4.26456
rfemur -26.8263 13.0899 12.4038
rtibia 37.2328
rfoot -21.8214 -19.4675
rtoes -20.4235
lfemur -34.6275 -7.86822 -3.19497
ltibia 47.0477
lfoot -27.263 6.37448
ltoes -23.8955
7
root -4.89521 16.5815 17.6353 180.174 -53.3404 -168.686
lowerback -5.80025 6.11257 3.04222
upperback -6.24861 7.7379 -3.13529
thorax -2.40608 3.60183 -4.59699
lowerneck -9.81706 -8.87503 -15.7508
upperneck 31.5206 -16.6264 15.0619
head 15.409 -8.11362 5.969
rclavicle 6.61953e-014 7.15625e-014
rhumerus 2.54684 0.506515 -26.5925
rradius 60.261
rwrist 16.7206
rhand -31.3269 -52.3352
rfingers 7.12502
rthumb -4.59878 -82.2653
lclavicle 6.61953e-014 7.15625e-014
lhumerus -49.7964 20.5222 12.5033
lradius 34.8316
lwrist 31.8141
lhand -42.86 -33.4654
lfingers 7.12502
lthumb -15.7235 -4.08411
rfemur -26.7892 12.9729 11.6266
rtibia 37.2462
rfoot -22.1983 -18.533
rtoes -20.2943
lfemur -33.7019 -8.08778 -4.10606
ltibia 46.725
lfoot -27.3057 7.27629
ltoes -23.7315
8
root -4.9241 16.5834 17.6317 180.877 -52.2727 -169.811
lowerback -5.63249 6.13912 2.59563
upperback -6.22519 7.79181 -3.02274
thorax -2.54072 3.64281 -4.25279
lowerneck -9.37805 -8.96774 -15.2962
upperneck 31.4552 -16.8953 14.7898
head 15.2445 -8.24214 5.72415
rclavicle -9.93923e-014 -2.54444e-014
rhumerus 2.39941 0.68053 -26.745
rradius 59.8308
rwrist 17.1557
rhand -30.8617 -52.9635
rfingers 7.12502
rthumb -4.14963 -82.9029
lclavicle -9.93923e-014 -2.54444e-014
lhumerus -50.0701 20.6817 11.1905
lradius 34.9231
lwrist 31.6466
lhand -42.8453 -32.8505
lfingers 7.12502
lthumb -15.7093 -3.46816
rfemur -26.8592 11.8571 11.1572
rtibia 37.3871
rfoot -22.2221 -17.2028
rtoes -21.3715
lfemur -32.7762 -7.99977 -4.90894
ltibia 46.3818
lfoot -27.4329 7.5668
ltoes -23.5199
